<?xml version="1.0" standalone="no"?>
<!DOCTYPE svg PUBLIC "-//W3C//DTD SVG 20010904//EN"
 "http://www.w3.org/TR/2001/REC-SVG-20010904/DTD/svg10.dtd">
<svg version="1.0" xmlns="http://www.w3.org/2000/svg"
 width="181.000000pt" height="43.000000pt" viewBox="0 0 181.000000 43.000000"
 preserveAspectRatio="xMidYMid meet">

<g transform="translate(0.000000,43.000000) scale(0.100000,-0.100000)"
fill="#000000" stroke="none">
<path d="M1395 414 c-36 -19 -64 -43 -77 -67 -5 -10 9 0 31 22 38 38 54 44
136 54 21 3 16 4 -15 5 -25 1 -58 -5 -75 -14z"/>
<path d="M1535 408 c11 -6 31 -20 45 -32 14 -11 11 -6 -7 12 -18 17 -38 32
-45 32 -7 0 -4 -6 7 -12z"/>
<path d="M1616 327 c3 -10 9 -15 12 -12 3 3 0 11 -7 18 -10 9 -11 8 -5 -6z"/>
<path d="M1116 273 c-47 -63 -47 -83 -1 -83 24 0 35 -5 35 -15 0 -8 9 -15 19
-15 24 0 30 29 22 100 -8 73 -28 77 -75 13z m34 -33 c0 -11 -7 -20 -15 -20
-18 0 -19 12 -3 28 16 16 18 15 18 -8z"/>
<path d="M1290 253 c-7 -38 -15 -74 -18 -80 -2 -7 1 -13 6 -13 6 0 16 26 22
58 6 31 14 67 17 80 3 12 1 22 -4 22 -5 0 -15 -30 -23 -67z"/>
<path d="M1337 306 c-7 -19 1 -26 30 -26 13 0 23 -2 23 -4 0 -2 -11 -29 -25
-60 -23 -53 -24 -56 -6 -56 14 0 28 19 50 67 18 37 29 73 27 80 -7 18 -92 17
-99 -1z"/>
<path d="M270 285 c0 -8 9 -15 19 -15 16 0 19 -7 19 -46 0 -25 3 -48 6 -51 13
-13 26 13 26 53 0 32 4 44 15 44 8 0 15 7 15 15 0 11 -12 15 -50 15 -38 0 -50
-4 -50 -15z"/>
<path d="M390 291 c0 -32 26 -114 38 -119 17 -6 32 15 32 46 0 35 18 26 26
-13 4 -24 12 -35 24 -35 13 0 21 15 33 62 17 67 16 74 -8 65 -9 -4 -15 -19
-15 -37 0 -41 -16 -38 -24 5 -9 44 -34 47 -43 5 -8 -43 -20 -45 -27 -5 -4 21
-13 35 -21 35 -8 0 -15 -4 -15 -9z"/>
<path d="M580 235 l0 -65 45 0 c33 0 45 4 45 15 0 10 -10 15 -30 15 -20 0 -30
5 -30 15 0 9 9 15 25 15 14 0 25 5 25 10 0 6 -11 10 -25 10 -33 0 -32 18 2 22
48 6 39 28 -11 28 l-46 0 0 -65z"/>
<path d="M690 235 c0 -51 3 -65 15 -65 10 0 15 11 15 35 0 44 9 44 38 -1 32
-49 46 -39 50 34 3 56 1 62 -17 62 -15 0 -20 -8 -23 -32 l-3 -33 -20 33 c-10
17 -27 32 -37 32 -15 0 -18 -9 -18 -65z"/>
<path d="M820 289 c0 -6 9 -13 20 -16 17 -4 20 -14 20 -55 0 -42 3 -49 18 -46
13 2 18 15 20 50 2 36 7 47 23 51 42 11 18 27 -41 27 -37 0 -60 -4 -60 -11z"/>
<path d="M950 295 c0 -2 9 -19 20 -37 11 -18 20 -45 20 -60 0 -18 5 -28 15
-28 10 0 15 10 15 28 0 15 9 41 20 57 24 36 25 45 5 45 -8 0 -19 -9 -26 -21
l-11 -21 -14 21 c-13 18 -44 30 -44 16z"/>
<path d="M1632 258 c-1 -20 -5 -45 -8 -55 -5 -17 -5 -17 6 0 6 9 9 34 7 55
l-4 37 -1 -37z"/>
<path d="M1584 138 l-19 -23 23 19 c12 11 22 21 22 23 0 8 -8 2 -26 -19z"/>
<path d="M1310 105 l34 -35 -34 -35 c-34 -35 -34 -35 -9 -35 16 0 38 13 59 35
l34 35 -40 34 c-21 20 -48 35 -58 36 -17 0 -15 -5 14 -35z"/>
<path d="M1534 104 c-18 -14 -18 -15 4 -4 12 6 22 13 22 15 0 8 -5 6 -26 -11z"/>
</g>
</svg>
